<svg xmlns="http://www.w3.org/2000/svg" xmlns:xlink="http://www.w3.org/1999/xlink" width="1329" height="315" viewBox="0 0 1329 715">
  <defs>
    <style>
      .cls-1 {
        clip-path: url(#clip-Artboard_12);
      }

      .cls-2 {
        fill: #202532;
      }

      .cls-3 {
        fill: #FF2D55;
      }

      .cls-4 {
        fill: none;
      }

      .cls-5 {
        fill: #FF2D55;
      }

      .cls-6 {
        filter: url(#Ellipse_1);
      }

      .cls-7 {
        fill: #202532; /* Adjust the text color as needed */
        font-size: 72px; /* Adjust the font size as needed */
        font-family: Arial, sans-serif; /* Adjust the font family as needed */
      }
    </style>
    <filter id="Ellipse_1" x="170" y="17.501" width="104" height="104" filterUnits="userSpaceOnUse">
      <feOffset input="SourceAlpha"/>
      <feGaussianBlur stdDeviation="5" result="blur"/>
      <feFlood flood-opacity="0.149"/>
      <feComposite operator="in" in2="blur"/>
      <feComposite in="SourceGraphic"/>
    </filter>
    <clipPath id="clip-Artboard_12">
      <rect width="1329" height="315"/>
    </clipPath>
  </defs>
  <g id="Artboard_12" data-name="Artboard – 12" class="cls-1">
    <g id="Group_9" data-name="Group 9" transform="translate(-677 -127.499)">
      <path id="Subtraction_1" data-name="Subtraction 1" class="cls-2" d="M20435,15153h-100a49.958,49.958,0,0,1-50-50v-100a49.961,49.961,0,0,1,50-50h93.809a41.8,41.8,0,0,0,8.2,46.842,40.861,40.861,0,0,0,13.033,8.894,40.578,40.578,0,0,0,34.961-1.455V15103a49.958,49.958,0,0,1-50,50Z" transform="translate(-19567 -14774)"/>
      <g class="cls-6" transform="matrix(1, 0, 0, 1, 677, 127.5)">
        <circle id="Ellipse_1-2" data-name="Ellipse 1" class="cls-3" cx="37" cy="37" r="37" transform="translate(185 32.5)"/>
      </g>
    </g>
    <g id="Group_25" data-name="Group 25" transform="translate(-14711 -6023)">
      <g id="Group_20" data-name="Group 20" transform="translate(15004 6119)">
        <path id="Path_53" data-name="Path 53" class="cls-2" d="M90.563,0H76.992L25.453-78.891V0H11.883V-102.375h13.57l51.68,79.242v-79.242h13.43Zm18.492-38.742a44.936,44.936,0,0,1,4.395-20.109,32.783,32.783,0,0,1,12.234-13.781,33.3,33.3,0,0,1,17.895-4.852q15.539,0,25.137,10.758t9.6,28.617v.914a45.327,45.327,0,0,1-4.254,19.934A32.3,32.3,0,0,1,161.895-3.516a33.686,33.686,0,0,1-18.176,4.922q-15.469,0-25.066-10.758t-9.6-28.477ZM122.133-37.2q0,12.656,5.871,20.32a18.789,18.789,0,0,0,15.715,7.664,18.676,18.676,0,0,0,15.75-7.77q5.836-7.77,5.836-21.762,0-12.516-5.941-20.285a18.888,18.888,0,0,0-15.785-7.77,18.679,18.679,0,0,0-15.539,7.664Q122.133-51.469,122.133-37.2Zm90.141-57.3v18.422h14.2v10.055h-14.2v47.18q0,4.57,1.9,6.855T220.641-9.7a31.493,31.493,0,0,0,6.188-.844V0a37.711,37.711,0,0,1-9.984,1.406q-8.719,0-13.148-5.273t-4.43-14.977v-47.18H185.414V-76.078h13.852V-94.5ZM255.8,0H242.789V-76.078H255.8ZM241.734-96.258a7.765,7.765,0,0,1,1.934-5.344,7.26,7.26,0,0,1,5.73-2.18,7.373,7.373,0,0,1,5.766,2.18,7.683,7.683,0,0,1,1.969,5.344,7.43,7.43,0,0,1-1.969,5.273,7.506,7.506,0,0,1-5.766,2.109,7.39,7.39,0,0,1-5.73-2.109A7.507,7.507,0,0,1,241.734-96.258ZM280.969,0V-66.023H268.945V-76.078h12.023v-6.469q0-12.727,7.277-19.828t20.566-7.1q7.875,0,19.9,4.289l-2.18,10.969A45.068,45.068,0,0,0,309.8-97.734q-8.367,0-12.059,3.762t-3.691,11.285v6.609h15.539v10.055H294.047V0ZM335.18,0H322.1V-76.078H335.18Zm51.68-9.211a18.737,18.737,0,0,0,12.164-4.219,14.842,14.842,0,0,0,5.766-10.547h12.3a23.588,23.588,0,0,1-4.5,12.445A29.638,29.638,0,0,1,401.52-2.109a31.954,31.954,0,0,1-14.66,3.516q-15.539,0-24.715-10.371t-9.176-28.371v-2.18a45.8,45.8,0,0,1,4.078-19.758A31.061,31.061,0,0,1,368.754-72.7a33.256,33.256,0,0,1,18.035-4.781q12.8,0,21.27,7.664t9.035,19.9h-12.3a17.926,17.926,0,0,0-5.59-12.129,17.389,17.389,0,0,0-12.41-4.746q-9.914,0-15.363,7.137t-5.449,20.637v2.461q0,13.148,5.414,20.25T386.859-9.211ZM478.688,0q-1.125-2.25-1.828-8.016A29.023,29.023,0,0,1,455.2,1.406q-11.25,0-18.457-6.363a20.587,20.587,0,0,1-7.207-16.137q0-11.883,9.035-18.457t25.418-6.574h12.656V-52.1q0-6.82-4.078-10.863t-12.023-4.043a18.967,18.967,0,0,0-11.672,3.516q-4.711,3.516-4.711,8.508H431.086a17.952,17.952,0,0,1,4.043-11,27.594,27.594,0,0,1,10.969-8.4,36.9,36.9,0,0,1,15.223-3.094q13.148,0,20.6,6.574T489.656-52.8v35.016q0,10.477,2.672,16.664V0ZM457.1-9.914a22.862,22.862,0,0,0,11.6-3.164,19.139,19.139,0,0,0,7.945-8.227V-36.914h-10.2q-23.906,0-23.906,13.992,0,6.117,4.078,9.563A15.675,15.675,0,0,0,457.1-9.914ZM527.7-94.5v18.422h14.2v10.055H527.7v47.18q0,4.57,1.9,6.855T536.063-9.7a31.493,31.493,0,0,0,6.188-.844V0a37.711,37.711,0,0,1-9.984,1.406q-8.719,0-13.148-5.273t-4.43-14.977v-47.18H500.836V-76.078h13.852V-94.5ZM571.219,0H558.211V-76.078h13.008ZM557.156-96.258a7.765,7.765,0,0,1,1.934-5.344,7.26,7.26,0,0,1,5.73-2.18,7.373,7.373,0,0,1,5.766,2.18,7.683,7.683,0,0,1,1.969,5.344,7.43,7.43,0,0,1-1.969,5.273,7.506,7.506,0,0,1-5.766,2.109,7.39,7.39,0,0,1-5.73-2.109A7.507,7.507,0,0,1,557.156-96.258Zm31.43,57.516a44.936,44.936,0,0,1,4.395-20.109,32.783,32.783,0,0,1,12.234-13.781,33.3,33.3,0,0,1,17.895-4.852q15.539,0,25.137,10.758t9.6,28.617v.914a45.327,45.327,0,0,1-4.254,19.934A32.3,32.3,0,0,1,641.426-3.516,33.686,33.686,0,0,1,623.25,1.406q-15.469,0-25.066-10.758t-9.6-28.477ZM601.664-37.2q0,12.656,5.871,20.32A18.789,18.789,0,0,0,623.25-9.211,18.676,18.676,0,0,0,639-16.98q5.836-7.77,5.836-21.762,0-12.516-5.941-20.285a18.888,18.888,0,0,0-15.785-7.77,18.679,18.679,0,0,0-15.539,7.664Q601.664-51.469,601.664-37.2Zm84.8-38.883.422,9.563a27.724,27.724,0,0,1,22.781-10.969q24.117,0,24.328,27.211V0H720.984V-50.344q-.07-8.227-3.762-12.164t-11.5-3.937a18.774,18.774,0,0,0-11.109,3.375,22.918,22.918,0,0,0-7.453,8.859V0H674.156V-76.078ZM812.18-26.719H769.289L759.656,0H745.734l39.094-102.375h11.813L835.8,0H821.953ZM773.367-37.828h34.8L790.734-85.711Zm89.719-2.25V0h-13.5V-102.375h37.758q16.8,0,26.332,8.578T923.2-71.086q0,14.906-9.316,22.957T887.2-40.078Zm0-11.039h24.258q10.828,0,16.594-5.1t5.766-14.73q0-9.141-5.766-14.625t-15.82-5.7H863.086Z" transform="translate(0 151)"/>
      </g>
      <circle id="Ellipse_10" data-name="Ellipse 10" class="cls-4" cx="20" cy="20" r="20" transform="translate(15932 6159)"/>
      <g id="Group_24" data-name="Group 24">
        <path id="Subtraction_2" data-name="Subtraction 2" class="cls-2" d="M25,109H11V34.588a18.06,18.06,0,0,0,14,0Z" transform="translate(15934 6161)"/>
        <circle id="Ellipse_9" data-name="Ellipse 9" class="cls-5" cx="16" cy="16" r="16" transform="translate(15936 6163)"/>
      </g>
    </g>
  </g>
  <text x="50%" y="75%" text-anchor="middle" class="cls-7">Send, Manage, and Monitor Your Notifications By NotificationAPI</text>
</svg>
